<svg width="14" height="14" viewBox="0 0 14 14" fill="none" xmlns="http://www.w3.org/2000/svg">
<path fill-rule="evenodd" clip-rule="evenodd" d="M10.4612 2.6271C10.0129 2.6271 9.64879 2.99066 9.64879 3.4402C9.64879 3.88912 10.0129 4.25329 10.4612 4.25329C10.9101 4.25329 11.2742 3.88912 11.2742 3.4402C11.2742 2.99066 10.9101 2.6271 10.4612 2.6271ZM7.07284 9.24733C5.84104 9.24733 4.83829 8.24447 4.83829 7.01131C4.83829 5.77877 5.84104 4.77652 7.07284 4.77652C8.30524 4.77652 9.30799 5.77877 9.30799 7.01131C9.30799 8.24447 8.30524 9.24733 7.07284 9.24733ZM7.07284 3.51819C5.14778 3.51819 3.58132 5.08543 3.58132 7.01131C3.58132 8.93781 5.14778 10.505 7.07284 10.505C8.99851 10.505 10.565 8.93781 10.565 7.01131C10.565 5.08543 8.99851 3.51819 7.07284 3.51819ZM12.5551 8.92C12.549 9.34067 12.5324 9.78959 12.4532 10.2146C12.2383 11.371 11.5818 12.0741 10.4471 12.3646C9.92573 12.4979 9.37063 12.5022 8.78359 12.5059H8.77745C8.49192 12.5077 8.19901 12.5083 7.88216 12.5083C7.08512 12.5083 6.27334 12.5028 5.48735 12.4966L4.95987 12.493C4.57179 12.4899 4.11616 12.4721 3.6765 12.3603C2.81682 12.1417 2.23224 11.6602 1.88837 10.8883C1.671 10.3976 1.62187 9.85531 1.60284 9.38919C1.59854 9.28847 1.59117 9.19328 1.58319 9.10116L1.57582 9.00905V5.05963C1.5838 5.01972 1.59363 4.96383 1.59547 4.89935C1.60898 4.43691 1.62802 4.02177 1.72749 3.62505C1.94794 2.74931 2.43918 2.1573 3.23008 1.81523C3.71089 1.60704 4.24266 1.56037 4.69952 1.54133C4.80022 1.53703 4.89601 1.52905 4.98812 1.52168L5.07962 1.51431H9.03106C9.0636 1.52107 9.10474 1.52721 9.15202 1.53151C9.28589 1.54318 9.41852 1.55116 9.54625 1.55853C9.80047 1.57388 10.0399 1.58801 10.2616 1.62915C10.8425 1.73847 11.3166 1.95955 11.669 2.28565C12.0227 2.6142 12.2763 3.06988 12.4225 3.64101C12.5533 4.15258 12.5582 4.69853 12.5637 5.27519V5.32493C12.5748 6.53291 12.5723 7.74273 12.5551 8.92ZM13.8213 5.31388L13.8207 5.26414C13.8152 4.63712 13.809 3.98861 13.6408 3.32904C13.2287 1.71697 12.14 0.70183 10.4931 0.393541C10.1935 0.337042 9.9024 0.319846 9.62055 0.303265C9.49897 0.29651 9.38352 0.28914 9.26992 0.279314C9.26378 0.278086 9.25826 0.276858 9.25212 0.27563C9.23554 0.273173 9.21896 0.269488 9.20115 0.266418L9.14711 0.256592H5.03233L5.00961 0.258434C4.96786 0.261505 4.92549 0.264575 4.88435 0.26826C4.80083 0.275015 4.72224 0.281771 4.64855 0.284841C4.10941 0.30695 3.40447 0.36959 2.73086 0.660684C1.57275 1.16181 0.825446 2.05597 0.508594 3.31799C0.380871 3.82648 0.355081 4.32392 0.339729 4.82995C0.335431 4.84899 0.331747 4.86741 0.328062 4.88584L0.318237 4.94049V9.05633L0.320079 9.07906C0.32315 9.12143 0.326834 9.16319 0.330518 9.20495C0.337273 9.28786 0.343414 9.36585 0.346484 9.44016C0.36859 9.99103 0.434294 10.7108 0.740093 11.3992C1.243 12.5304 2.12724 13.2643 3.36702 13.5787C3.94054 13.7249 4.51407 13.747 4.95005 13.7507L5.47814 13.7544C6.26597 13.7599 7.0802 13.7666 7.88216 13.7666C8.20208 13.7666 8.49744 13.7654 8.78543 13.7636H8.79157C9.42896 13.7593 10.0885 13.755 10.7584 13.583C12.3703 13.1703 13.3841 12.0852 13.6893 10.4449C13.7857 9.92532 13.8053 9.39164 13.8121 8.93781C13.8287 7.75071 13.8323 6.53168 13.8213 5.31388Z" fill="#9A9A9A"/>
</svg>
