<svg width="13" height="11" viewBox="0 0 13 11" fill="none" xmlns="http://www.w3.org/2000/svg">
<path fill-rule="evenodd" clip-rule="evenodd" d="M11.2265 2.13649C11.7639 1.81482 12.1766 1.30544 12.371 0.698578C11.868 0.996296 11.311 1.21263 10.7185 1.32927C10.2438 0.824027 9.56728 0.508545 8.81908 0.508545C7.38195 0.508545 6.21683 1.67215 6.21683 3.10759C6.21683 3.31126 6.23972 3.50969 6.28411 3.69986C4.12152 3.59162 2.20351 2.55677 0.920516 0.984178C0.696482 1.3681 0.567989 1.81454 0.567989 2.29086C0.567989 3.19255 1.02736 3.98794 1.72552 4.45421C1.29924 4.44071 0.897768 4.32408 0.546896 4.12936C0.54662 4.1401 0.54662 4.15084 0.54662 4.16186C0.54662 5.42131 1.44386 6.47173 2.63407 6.71051C2.41596 6.77 2.186 6.8018 1.94846 6.8018C1.78095 6.8018 1.61813 6.78556 1.45889 6.75512C1.79005 7.78764 2.7514 8.53923 3.8899 8.56002C2.99914 9.25722 1.87732 9.67282 0.658155 9.67282C0.448183 9.67282 0.241106 9.66042 0.0374756 9.63605C1.18894 10.3737 2.55645 10.8042 4.02653 10.8042C8.81287 10.8042 11.4304 6.84339 11.4304 3.40861C11.4304 3.29625 11.4279 3.18402 11.4228 3.07234C11.9312 2.70632 12.3722 2.24859 12.7213 1.7271C12.2543 1.93393 11.753 2.07356 11.2265 2.13649Z" fill="#9A9A9A"/>
</svg>
